<?xml version="1.0" standalone="no"?>
<!DOCTYPE svg PUBLIC "-//W3C//DTD SVG 20010904//EN"
 "http://www.w3.org/TR/2001/REC-SVG-20010904/DTD/svg10.dtd">
<svg version="1.0" xmlns="http://www.w3.org/2000/svg"
 width="260.000000pt" height="260.000000pt" viewBox="0 0 260.000000 260.000000"
 preserveAspectRatio="xMidYMid meet">
<metadata>
Created by potrace 1.14, written by Peter Selinger 2001-2017
</metadata>
<g transform="translate(0.000000,260.000000) scale(0.100000,-0.100000)"
fill="#000000" stroke="none">
<path d="M0 1300 l0 -1300 1300 0 1300 0 0 1300 0 1300 -1300 0 -1300 0 0
-1300z m1066 884 c31 -8 57 -59 50 -98 -8 -41 -34 -65 -78 -72 -27 -5 -40 -1
-66 21 -26 22 -32 34 -32 66 0 66 55 102 126 83z m551 -1370 c-3 -3 -12 -4
-19 -1 -8 3 -5 6 6 6 11 1 17 -2 13 -5z m-1 -140 c51 -24 60 -97 19 -139 -39
-38 -95 -35 -130 7 -22 26 -26 39 -21 67 10 66 69 95 132 65z"/>
</g>
</svg>
